<svg id="Glyph" enable-background="new 0 0 32 32" height="512" viewBox="0 0 32 32" width="512" xmlns="http://www.w3.org/2000/svg"><path d="m3.077 10.697c-.313-2.473 1.367-5.863 3.345-7.418.586-.46 2.56.071 3.072-.203 1.21-.648 3.19-1.5 4.378-.811.736.427.322 1.449 1.052 1.888 1.403.845 5.06-.533 6.487.27 1.264.711 2.005 6.455 3.205 7.268.669.453 3.85-1.158 4.274-.168.808 1.885-4.69 5.003-5.261 6.63-.446 1.27 1.357 2.574.28 3.382-1.615 1.212-1.026 3.047-1.514 3.399-1.544 1.113-.946 1.772-1.997 3.36-1.167 1.763-3.006 1.75-4.397 1.703-1.345-.045-2.935-3.854-3.163-5.181-.233-1.353 1.2-3.177 1.01-4.51s-1.437-.877-2.154-2.221c-.718-1.346-.043-3.163-.851-4.24-.528-.704-4.52.428-5.193-.152-.979-.842-2.414-1.742-2.573-2.996z"/><path d="m27.847 19.386c.196-.319.649-.298.778.054.699 1.901.395 6.269-.922 7.175-.872.6-3.373.549-2.986-.503.479-1.302.985-1.465 1.142-2.174.123-.557-.509-1.995-.111-2.374.754-.713 1.308-.892 2.099-2.178z"/></svg>