<svg id="Capa_1" enable-background="new 0 0 512 512" height="512" viewBox="0 0 512 512" width="512" xmlns="http://www.w3.org/2000/svg"><path d="m202.213 391.792h-51.213v-41.459l-24.271-48.541h-5.729v21.213l-38.787 38.787h-42.283l-39.93-38.642v-42.716l31-30v-47.284l-31-30v-48.116l76.03-18.696 61.816 15.454h24.613l38.219-19.109-19.678-19.678v-51.213h81.213l30 30h68.787v30h47.409l103.591 34.151v55.849h-39.787l-30 30h-51.213v-30h-30v8.787l36.213 36.213-45 45h-21.213v21.213l-38.787 38.787h-21.213v30h-38.787z"/><path d="m76 61.792h60v30h-60z"/><path d="m382.213 331.792h-36.213v-30h23.787l25.607-25.607 21.212 21.213z"/><path d="m395.394 447.398-25.607-25.606h-23.787v-30h36.213l34.393 34.393z"/><path d="m301 436.792h30v30h-30z"/><path d="m331 346.792h30v30h-30z"/><path d="m329.155 421.792h-58.155v-45h40.155z"/><path d="m279.292 480.208-68.292-34.146v-39.27h30v20.729l51.708 25.854z"/></svg>